<svg xmlns="http://www.w3.org/2000/svg" xmlns:svg="http://www.w3.org/2000/svg" version="1.1" id="svg2472" xml:space="preserve" width="682.66669" height="682.66669" viewBox="0 0 682.66669 682.66669"><defs id="defs2476" fill="#ed6b2f"><clipPath clipPathUnits="userSpaceOnUse" id="clipPath2486" fill="#ed6b2f"><path d="M 0,512 H 512 V 0 H 0 Z" id="path2484" fill="#ed6b2f"/></clipPath></defs><g id="g2478" transform="matrix(1.3333333,0,0,-1.3333333,0,682.66667)"><g id="g2480"><g id="g2482" clip-path="url(#clipPath2486)"><g id="g2488" transform="translate(181,256)"><path d="M 0,0 C 0,41.421 33.579,75 75,75 116.421,75 150,41.421 150,0 150,-41.421 116.421,-75 75,-75 33.579,-75 0,-41.421 0,0 Z" style="fill:none;stroke:#ed6b2f;stroke-width:40;stroke-linecap:round;stroke-linejoin:round;stroke-miterlimit:10;stroke-dasharray:none;stroke-opacity:1" id="path2490"/></g><g id="g2492" transform="translate(412,256)"><path d="M 0,0 C 0,22.092 17.909,40 40,40 62.091,40 80,22.092 80,0 80,-22.092 62.091,-40 40,-40 17.909,-40 0,-22.092 0,0 Z" style="fill:none;stroke:#ed6b2f;stroke-width:40;stroke-linecap:round;stroke-linejoin:round;stroke-miterlimit:10;stroke-dasharray:none;stroke-opacity:1" id="path2494"/></g><g id="g2496" transform="translate(358,350)"><path d="M 0,0 C 0,11.046 8.954,20 20,20 31.046,20 40,11.046 40,0 40,-11.046 31.046,-20 20,-20 8.954,-20 0,-11.046 0,0" style="fill:#ed6b2f;fill-opacity:1;fill-rule:nonzero;stroke:none" id="path2498"/></g><g id="g2500" transform="translate(111,165)"><path d="M 0,0 C 0,11.046 8.954,20 20,20 31.046,20 40,11.046 40,0 40,-11.046 31.046,-20 20,-20 8.954,-20 0,-11.046 0,0" style="fill:#ed6b2f;fill-opacity:1;fill-rule:nonzero;stroke:none" id="path2502"/></g><g id="g2504" transform="translate(20,256)"><path d="M 0,0 C 0,22.092 17.909,40 40,40 62.091,40 80,22.092 80,0 80,-22.092 62.091,-40 40,-40 17.909,-40 0,-22.092 0,0 Z" style="fill:none;stroke:#ed6b2f;stroke-width:40;stroke-linecap:round;stroke-linejoin:round;stroke-miterlimit:10;stroke-dasharray:none;stroke-opacity:1" id="path2506"/></g><g id="g2508" transform="translate(21.3354,372)"><path d="M 0,0 C -4.73,38.79 2.998,71.841 24.911,93.754 78.021,146.865 196.563,116.951 303.665,28" style="fill:none;stroke:#ed6b2f;stroke-width:40;stroke-linecap:round;stroke-linejoin:round;stroke-miterlimit:10;stroke-dasharray:none;stroke-opacity:1" id="path2510"/></g><g id="g2512" transform="translate(490.1528,143.8809)"><path d="m 0,0 c 5.739,-40.465 -1.759,-74.995 -24.399,-97.635 -53.643,-53.643 -173.818,-23.276 -281.754,67.754" style="fill:none;stroke:#ed6b2f;stroke-width:40;stroke-linecap:round;stroke-linejoin:round;stroke-miterlimit:10;stroke-dasharray:none;stroke-opacity:1" id="path2514"/></g><g id="g2516" transform="translate(490.6646,372)"><path d="m 0,0 c 4.73,38.79 -2.998,71.841 -24.911,93.754 -59.677,59.678 -203.198,14.145 -319.043,-101.699 -3.987,-3.988 -7.891,-8.006 -11.711,-12.052" style="fill:none;stroke:#ed6b2f;stroke-width:40;stroke-linecap:round;stroke-linejoin:round;stroke-miterlimit:10;stroke-dasharray:none;stroke-opacity:1" id="path2518"/></g><g id="g2520" transform="translate(21.8472,143.8809)"><path d="m 0,0 c -5.739,-40.465 1.759,-74.995 24.399,-97.635 59.677,-59.677 201.91,-14.142 317.754,101.702 4.972,4.972 9.813,9.992 14.523,15.052" style="fill:none;stroke:#ed6b2f;stroke-width:40;stroke-linecap:round;stroke-linejoin:round;stroke-miterlimit:10;stroke-dasharray:none;stroke-opacity:1" id="path2522"/></g></g></g></g></svg>